<svg xmlns="http://www.w3.org/2000/svg" version="1.1" xmlns:xlink="http://www.w3.org/1999/xlink" xmlns:svgjs="http://svgjs.dev/svgjs" width="320" height="180" viewBox="0 0 1500 1687"><g transform="matrix(1,0,0,1,2.2737367544323206e-13,0)"><svg viewBox="0 0 320 360" data-background-color="#000000" preserveAspectRatio="xMidYMid meet" height="1687" width="1500" xmlns="http://www.w3.org/2000/svg" xmlns:xlink="http://www.w3.org/1999/xlink"><g id="tight-bounds" transform="matrix(1,0,0,1,0,0)"><svg viewBox="0 0 320 360" height="360" width="320"><g><svg></svg></g><g><svg viewBox="0 0 320 360" height="360" width="320"><g><path d="M20.961 227.22l3.726 4.658-1.863-6.056c-0.466-2.795-3.726 0.466-1.863 1.398M25.153 224.425c1.397 2.329 2.795 4.658 2.795 6.987 0 3.261 2.795 4.658 5.123 5.589-3.261-3.726-5.124-13.974-7.918-12.576M204.017 26.929c7.918 0 15.371-0.932 23.756 0.931 20.495 5.124 37.729 15.371 49.374 29.811l32.606 52.169c1.397 13.042 4.192 27.482 3.726 43.319 3.261 0 2.795-4.658 6.521-5.59-3.726 9.316-5.59 20.961-6.521 34.469-2.329-7.453 0-18.632 0.466-24.687-3.261 5.124-5.124 1.397-5.124-0.932 0.466-3.726-1.397-3.261-2.795-4.658-5.124-4.658-8.384-9.782-12.11-17.7 2.329-6.055 2.795-14.905-4.658-19.563-2.329-1.397-5.124-3.726-6.521-7.453-1.863-5.124-5.124-11.179-4.193-19.097 0.466-2.329-6.987 5.124-11.179 1.863-18.166-12.576-36.332-27.016-58.224-39.127-11.645 0-20.029-4.192-24.221-9.316-3.726-4.658-0.932-10.713 4.658-11.179 3.261 0 6.987-0.932 9.782 0.932 0.466-1.863 2.329-4.192 4.657-4.192M157.904 16.215l0.932 0.466c4.658 0.932 6.987 7.453 12.11 5.124 0 3.261 0.466 6.521-0.466 8.85-1.397 3.726-5.59 3.726-8.85 3.726-31.208-1.863-49.374 11.179-68.471 22.358-5.124 3.261-10.713 5.59-14.906 9.782-20.029 18.632-41.921 35.866-47.045 70.335l-4.192 38.195c-0.466 4.192-5.124 8.384-4.192 13.508l3.26 22.824c-3.261-3.261-5.124 0.932-4.192 2.795 0.466 1.397 2.329 6.055 5.124 1.863 3.726 6.987 7.453 20.495 12.576 26.55 15.837 18.632 36.332 35.4 53.101 52.169 4.192-0.932 7.453-0.932 8.384-3.727 1.397 2.795-1.397 5.59-3.726 6.056 7.453 4.658 15.837 8.85 27.016 9.781 14.44 0.932 27.948 3.261 40.524 6.522 6.521-1.863 13.042-2.795 20.029-3.261 2.329 0 3.726-3.726 6.521-4.658l0.466-4.658c2.795 4.192 2.329-1.397 0.466-4.192 3.261 2.795 4.192 5.124 5.589 6.987 0-1.397 3.726-6.521 3.727-0.466l0.931-6.055c1.397-0.932 1.863 5.124 3.261 0.931 1.397-4.192 4.192-0.932 6.987-2.329-0.932 1.863-0.466 5.59 2.794 3.261l3.727-3.261c2.329 5.59 6.055 3.261 7.918 2.329 20.495-13.042 40.99-28.413 60.553-43.784l-0.466 6.055 2.329-7.453c2.329 2.329 4.192 0.466 5.124-0.931 2.795-4.658 6.521-9.316 12.577-13.508-7.453 20.029-16.303 35.866-27.482 48.908l-4.658 5.59c0 3.261-0.932 7.453-4.658 7.918-1.863 0.466-5.59-0.932-8.384 1.863-1.397 1.863 3.261 5.59-0.466 2.795-3.261-2.329-6.521 0-10.248 0.932-2.795 0.932 1.863 3.726 2.795 5.589 0.932 1.863 1.863 3.726 1.398 6.056l-5.124-5.59c-6.055 3.261-9.782 9.316-14.906 13.974-2.329 1.863-1.397 5.124-1.397 7.918-3.261 0-6.987-0.932-8.85 0.932-1.397 1.863-0.932 4.658-0.932 7.453-4.658-0.466-5.124-7.453-9.315-6.056-4.192 0.932-8.85 1.397-12.577 3.727 2.795 5.59-4.658 2.329-3.726 3.26-6.987-4.192-13.042-7.453-20.495-4.658-15.837-5.124-35.4-2.795-49.84-0.931 0-2.329 0.466-4.658-0.466-5.124-0.932 2.329-3.726 1.397-3.26 1.397-8.85-6.055-17.7-9.782-27.016-14.905-8.384 0.932-16.303-3.261-18.632-5.59-6.521-6.055-13.974-2.795-20.029-4.192-13.042-3.261-17.7-16.769-19.098-26.084-0.932-4.658-4.658-6.521-6.055-6.056-6.055-19.563-15.371-37.263-22.824-55.429-1.863-4.658-1.397-9.316-1.397-14.44 2.329 0.932 4.658 0.466 4.192-2.794-2.329-15.371-7.918-27.016-13.974-38.195 3.261-15.837 3.726-34.469 11.179-48.443 6.521-12.576 18.632-19.098 27.016-29.811 2.795-3.726 2.795-8.85 5.59-12.11 9.316-9.316 18.632-19.098 28.879-27.482 4.658-3.726 10.247 0 17.234-1.397 2.329-8.384 11.645-15.837 20.495-13.508 3.726 0.932 11.179-8.85 13.508-9.782 3.726-1.397 1.863 3.726 1.863 6.987 8.85-6.987 20.961-10.713 32.14-14.906" fill="#c10000" fill-rule="nonzero" stroke="none" stroke-width="1" stroke-linecap="butt" stroke-linejoin="miter" stroke-miterlimit="10" stroke-dasharray="" stroke-dashoffset="0" font-family="none" font-weight="none" font-size="none" text-anchor="none" style="mix-blend-mode: normal" data-fill-palette-color="tertiary"></path></g><g transform="matrix(1,0,0,1,97.5,90)"><svg viewBox="0 0 124.99999999999999 180" height="180" width="124.99999999999999"><g><svg viewBox="0 0 124.99999999999999 180" height="180" width="124.99999999999999"><g><svg viewBox="0 0 124.99999999999999 180" height="180" width="124.99999999999999"><g><svg viewBox="0 0 124.99999999999999 180" height="180" width="124.99999999999999"><g id="textblocktransform"><svg viewBox="0 0 124.99999999999999 180" height="180" width="124.99999999999999" id="textblock"><g><svg viewBox="0 0 124.99999999999999 180" height="180" width="124.99999999999999"><g transform="matrix(1,0,0,1,0,0)"><svg width="124.99999999999999" viewBox="-2.15 -37.5 30 43.2" height="180" data-palette-color="#c10000"><path d="M27.85 0L22.35 0 22.35-18Q20.45-18.9 18.03-19.53 15.6-20.15 13.1-20.45L13.1-20.45Q12.5-18.25 12-15.93 11.5-13.6 11.15-11.33 10.8-9.05 10.6-6.88 10.4-4.7 10.4-2.75L10.4-2.75Q10.4-0.55 10.73 1.55 11.05 3.65 12.15 5.7L12.15 5.7Q11 5.7 9.75 5.45 8.5 5.2 7.45 4.33 6.4 3.45 5.73 1.83 5.05 0.2 5.05-2.55L5.05-2.55Q5.05-4.3 5.3-6.45 5.55-8.6 6.05-10.95 6.55-13.3 7.28-15.78 8-18.25 8.9-20.65L8.9-20.65Q7.45-20.6 6.18-20.4 4.9-20.2 3.98-19.83 3.05-19.45 2.5-18.95 1.95-18.45 1.95-17.85L1.95-17.85Q1.95-17.65 2-17.55L2-17.55Q3.3-17.15 3.3-15.9L3.3-15.9Q3.3-15 2.65-14.65 2-14.3 1.25-14.3L1.25-14.3Q0-14.3-1.07-15.03-2.15-15.75-2.15-17.55L-2.15-17.55Q-2.15-18.75-1.43-19.7-0.7-20.65 0.58-21.33 1.85-22 3.58-22.35 5.3-22.7 7.35-22.7L7.35-22.7Q7.9-22.7 8.5-22.68 9.1-22.65 9.7-22.6L9.7-22.6Q10.95-25.6 12.5-28.33 14.05-31.05 15.85-33.08 17.65-35.1 19.65-36.3 21.65-37.5 23.85-37.5L23.85-37.5Q24.6-37.5 25.73-37.35 26.85-37.2 27.85-36.8L27.85-36.8 27.85 0ZM13.6-22.1L13.6-22.1Q16.1-21.65 18.4-20.98 20.7-20.3 22.35-19.5L22.35-19.5 22.35-35.1Q21.1-35 19.9-33.98 18.7-32.95 17.57-31.2 16.45-29.45 15.45-27.13 14.45-24.8 13.6-22.1Z" opacity="1" transform="matrix(1,0,0,1,0,0)" fill="#c10000" class="wordmark-text-0" data-fill-palette-color="primary" id="text-0"></path></svg></g></svg></g></svg></g></svg></g><g></g></svg></g></svg></g></svg></g></svg></g><defs></defs></svg><rect width="320" height="360" fill="none" stroke="none"></rect></g></svg></g></svg>